<svg width="52" height="28" viewBox="0 0 52 28" fill="none" xmlns="http://www.w3.org/2000/svg">
<path d="M30.3636 1V5.5C30.3636 6.60457 31.2591 7.5 32.3636 7.5H38V10V27H16V1L26.4545 1H30.3636ZM32.3636 5.5V2.1644L36.2824 5.5H32.3636Z" stroke="white" stroke-width="2"/>
<circle cx="31" cy="20" r="4" stroke="white" stroke-width="2"/>
<path d="M19 5H28" stroke="white" stroke-width="2" stroke-linecap="round"/>
<path d="M19 9H28" stroke="white" stroke-width="2" stroke-linecap="round"/>
<path d="M19 13H34" stroke="white" stroke-width="2" stroke-linecap="round"/>
<path d="M19 17H24" stroke="white" stroke-width="2" stroke-linecap="round"/>
<path d="M19 22H23" stroke="white" stroke-width="2" stroke-linecap="round"/>
<path d="M30.7749 23.3636V17H31.1825V23.3636H30.7749ZM31.9506 19.0359C31.9274 18.8188 31.8297 18.6497 31.6573 18.5288C31.4866 18.4078 31.2646 18.3473 30.9911 18.3473C30.7989 18.3473 30.634 18.3763 30.4964 18.4343C30.3589 18.4923 30.2537 18.571 30.1808 18.6705C30.1078 18.7699 30.0705 18.8834 30.0689 19.011C30.0689 19.1171 30.0929 19.209 30.141 19.2869C30.1907 19.3648 30.2578 19.4311 30.3423 19.4858C30.4268 19.5388 30.5205 19.5836 30.6232 19.62C30.726 19.6565 30.8295 19.6871 30.9339 19.712L31.4112 19.8313C31.6035 19.8761 31.7882 19.9366 31.9656 20.0128C32.1445 20.089 32.3045 20.1851 32.4453 20.3011C32.5878 20.4171 32.7005 20.5572 32.7834 20.7212C32.8662 20.8853 32.9077 21.0775 32.9077 21.2979C32.9077 21.5962 32.8314 21.8589 32.679 22.0859C32.5265 22.3113 32.3061 22.4878 32.0178 22.6154C31.7311 22.7414 31.3839 22.8043 30.9762 22.8043C30.5801 22.8043 30.2363 22.743 29.9446 22.6204C29.6546 22.4978 29.4276 22.3188 29.2635 22.0835C29.1011 21.8481 29.0133 21.5614 29 21.2234H29.9073C29.9206 21.4007 29.9753 21.5482 30.0714 21.6658C30.1675 21.7835 30.2926 21.8713 30.4467 21.9293C30.6025 21.9873 30.7765 22.0163 30.9688 22.0163C31.1693 22.0163 31.3449 21.9865 31.4957 21.9268C31.6482 21.8655 31.7675 21.781 31.8537 21.6733C31.9399 21.5639 31.9838 21.4363 31.9854 21.2905C31.9838 21.1579 31.9448 21.0485 31.8686 20.9624C31.7924 20.8745 31.6855 20.8016 31.5479 20.7436C31.4121 20.6839 31.253 20.6309 31.0707 20.5845L30.4915 20.4354C30.0722 20.3277 29.7408 20.1644 29.4972 19.9457C29.2552 19.7253 29.1342 19.4328 29.1342 19.0682C29.1342 18.7682 29.2154 18.5056 29.3778 18.2802C29.5419 18.0548 29.7648 17.88 30.0465 17.7557C30.3282 17.6297 30.6473 17.5668 31.0036 17.5668C31.3648 17.5668 31.6813 17.6297 31.9531 17.7557C32.2266 17.88 32.4412 18.0531 32.5969 18.2752C32.7527 18.4956 32.8331 18.7492 32.8381 19.0359H31.9506Z" fill="white"/>
</svg>
