<svg width="57" height="29" viewBox="0 0 57 29" fill="none" xmlns="http://www.w3.org/2000/svg">
<mask id="path-1-inside-1_119_62" fill="white">
<rect x="17" y="1" width="24" height="28" rx="1"/>
</mask>
<rect x="17" y="1" width="24" height="28" rx="1" stroke="white" stroke-width="4" fill="none" mask="url(#path-1-inside-1_119_62)"/>
<path d="M27.6826 8.51558C27.9399 7.72378 29.0601 7.72378 29.3174 8.51558V8.51558C29.4324 8.86968 29.7624 9.10942 30.1347 9.10942V9.10942C30.9673 9.10942 31.3134 10.1748 30.6399 10.6641V10.6641C30.3387 10.883 30.2126 11.2709 30.3277 11.625V11.625C30.5849 12.4168 29.6787 13.0752 29.0052 12.5859V12.5859C28.7039 12.367 28.2961 12.367 27.9948 12.5859V12.5859C27.3213 13.0752 26.4151 12.4168 26.6723 11.625V11.625C26.7874 11.2709 26.6613 10.883 26.3601 10.6641V10.6641C25.6866 10.1748 26.0327 9.10942 26.8653 9.10942V9.10942C27.2376 9.10942 27.5676 8.86968 27.6826 8.51558V8.51558Z" fill="white"/>
<rect x="22" y="18" width="13" height="2" rx="1" fill="white"/>
<path d="M46 1L48.2699 12.3217L56.9398 4.69502L46 1ZM45.3462 27.2433C44.9283 27.6043 44.8822 28.2358 45.2433 28.6537C45.6043 29.0717 46.2358 29.1178 46.6537 28.7567L45.3462 27.2433ZM51.1234 8.32849C53.3539 11.5359 54.0821 14.2419 53.3067 17.0519C52.5061 19.9535 50.0522 23.1777 45.3462 27.2433L46.6537 28.7567C51.4241 24.6355 54.2689 21.084 55.2347 17.5838C56.2257 13.992 55.1879 10.6702 52.7654 7.18662L51.1234 8.32849Z" fill="white"/>
<path d="M11.6072 28L9.33725 16.6783L0.667349 24.305L11.6072 28ZM12.2609 1.75672C12.6789 1.39567 12.725 0.764182 12.3639 0.346259C12.0029 -0.071665 11.3714 -0.117769 10.9535 0.243283L12.2609 1.75672ZM6.48375 20.6715C4.25325 17.4641 3.52511 14.7581 4.30044 11.9481C5.10107 9.0465 7.555 5.82225 12.2609 1.75672L10.9535 0.243283C6.18305 4.36452 3.33825 7.91603 2.37249 11.4162C1.38143 15.008 2.41924 18.3298 4.84176 21.8134L6.48375 20.6715Z" fill="white"/>
</svg>
